<mxfile host="Electron" modified="2023-05-19T07:09:33.818Z" agent="Mozilla/5.0 (Macintosh; Intel Mac OS X 10_15_7) AppleWebKit/537.36 (KHTML, like Gecko) draw.io/21.2.8 Chrome/112.0.5615.165 Electron/24.2.0 Safari/537.36" etag="HI6Gt-fHSWA3LVdUaegv" version="21.2.8" type="device">
  <diagram name="Page-1" id="18gKFxEAaGQhKXTTmQJe">
    <mxGraphModel dx="1114" dy="854" grid="1" gridSize="10" guides="1" tooltips="1" connect="1" arrows="1" fold="1" page="1" pageScale="1" pageWidth="827" pageHeight="1169" math="0" shadow="0">
      <root>
        <mxCell id="0" />
        <mxCell id="1" parent="0" />
        <mxCell id="mhwUHoLbakyhLdP8B7vC-5" value="&lt;font style=&quot;font-size: 32px;&quot;&gt;Server&lt;/font&gt;" style="rounded=1;whiteSpace=wrap;html=1;verticalAlign=top;" parent="1" vertex="1">
          <mxGeometry x="550" y="160" width="250" height="320" as="geometry" />
        </mxCell>
        <mxCell id="dYpmPyXzq7dEajP4tjT5-7" value="Public Key Y" style="shape=cylinder3;whiteSpace=wrap;html=1;boundedLbl=1;backgroundOutline=1;size=15;fillColor=#dae8fc;strokeColor=#6c8ebf;" vertex="1" parent="1">
          <mxGeometry x="620" y="370" width="110" height="70" as="geometry" />
        </mxCell>
        <mxCell id="mhwUHoLbakyhLdP8B7vC-6" value="&lt;font style=&quot;font-size: 32px;&quot;&gt;Client&lt;/font&gt;" style="rounded=1;whiteSpace=wrap;html=1;verticalAlign=top;" parent="1" vertex="1">
          <mxGeometry x="40" y="160" width="410" height="320" as="geometry" />
        </mxCell>
        <mxCell id="mhwUHoLbakyhLdP8B7vC-7" value="SSH Agent" style="ellipse;shape=cloud;whiteSpace=wrap;html=1;verticalAlign=top;spacingTop=37;spacingLeft=0;spacingRight=43;fillColor=#fff2cc;strokeColor=#d6b656;fontSize=19;" parent="1" vertex="1">
          <mxGeometry x="50" y="180" width="380" height="290" as="geometry" />
        </mxCell>
        <mxCell id="mhwUHoLbakyhLdP8B7vC-2" value="Private&lt;br&gt;Key B" style="shape=cylinder3;whiteSpace=wrap;html=1;boundedLbl=1;backgroundOutline=1;size=15;fillColor=#a20025;fontColor=#ffffff;strokeColor=#6F0000;" parent="1" vertex="1">
          <mxGeometry x="270" y="340" width="60" height="80" as="geometry" />
        </mxCell>
        <mxCell id="mhwUHoLbakyhLdP8B7vC-8" value="" style="shape=flexArrow;endArrow=classic;startArrow=classic;html=1;rounded=0;fillColor=#d5e8d4;strokeColor=#82b366;width=27.5;endSize=11.73;entryX=0;entryY=0;entryDx=0;entryDy=45;entryPerimeter=0;exitX=1;exitY=0.5;exitDx=0;exitDy=0;exitPerimeter=0;" parent="1" source="mhwUHoLbakyhLdP8B7vC-2" target="dYpmPyXzq7dEajP4tjT5-5" edge="1">
          <mxGeometry width="100" height="100" relative="1" as="geometry">
            <mxPoint x="330" y="380" as="sourcePoint" />
            <mxPoint x="640" y="370" as="targetPoint" />
          </mxGeometry>
        </mxCell>
        <mxCell id="mhwUHoLbakyhLdP8B7vC-9" value="&amp;nbsp;SSH Connection&amp;nbsp;" style="edgeLabel;html=1;align=center;verticalAlign=middle;resizable=0;points=[];rotation=-8.7;spacing=2;spacingTop=-8;labelBorderColor=none;labelPadding=80;fontSize=17;" parent="mhwUHoLbakyhLdP8B7vC-8" vertex="1" connectable="0">
          <mxGeometry x="0.0786" y="-4" relative="1" as="geometry">
            <mxPoint x="-1" as="offset" />
          </mxGeometry>
        </mxCell>
        <mxCell id="mhwUHoLbakyhLdP8B7vC-10" value="Private&lt;br&gt;Key A" style="shape=cylinder3;whiteSpace=wrap;html=1;boundedLbl=1;backgroundOutline=1;size=15;fillColor=#a20025;fontColor=#ffffff;strokeColor=#6F0000;" parent="1" vertex="1">
          <mxGeometry x="270" y="250" width="60" height="80" as="geometry" />
        </mxCell>
        <mxCell id="dYpmPyXzq7dEajP4tjT5-1" value="Passphrase A" style="shape=parallelogram;perimeter=parallelogramPerimeter;whiteSpace=wrap;html=1;fixedSize=1;" vertex="1" parent="1">
          <mxGeometry x="130" y="260" width="120" height="30" as="geometry" />
        </mxCell>
        <mxCell id="dYpmPyXzq7dEajP4tjT5-2" value="Passphrase B" style="shape=parallelogram;perimeter=parallelogramPerimeter;whiteSpace=wrap;html=1;fixedSize=1;" vertex="1" parent="1">
          <mxGeometry x="130" y="350" width="120" height="30" as="geometry" />
        </mxCell>
        <mxCell id="dYpmPyXzq7dEajP4tjT5-3" value="" style="endArrow=classic;html=1;rounded=0;exitX=0.5;exitY=1;exitDx=0;exitDy=0;entryX=0;entryY=1;entryDx=0;entryDy=-15;entryPerimeter=0;" edge="1" parent="1" source="dYpmPyXzq7dEajP4tjT5-1" target="mhwUHoLbakyhLdP8B7vC-10">
          <mxGeometry width="50" height="50" relative="1" as="geometry">
            <mxPoint x="390" y="460" as="sourcePoint" />
            <mxPoint x="440" y="410" as="targetPoint" />
            <Array as="points">
              <mxPoint x="190" y="315" />
            </Array>
          </mxGeometry>
        </mxCell>
        <mxCell id="dYpmPyXzq7dEajP4tjT5-4" value="" style="endArrow=classic;html=1;rounded=0;exitX=0.5;exitY=1;exitDx=0;exitDy=0;entryX=0;entryY=1;entryDx=0;entryDy=-15;entryPerimeter=0;" edge="1" parent="1">
          <mxGeometry width="50" height="50" relative="1" as="geometry">
            <mxPoint x="190" y="380" as="sourcePoint" />
            <mxPoint x="270" y="405" as="targetPoint" />
            <Array as="points">
              <mxPoint x="190" y="405" />
            </Array>
          </mxGeometry>
        </mxCell>
        <mxCell id="dYpmPyXzq7dEajP4tjT5-6" value="Public Key X" style="shape=cylinder3;whiteSpace=wrap;html=1;boundedLbl=1;backgroundOutline=1;size=15;fillColor=#dae8fc;strokeColor=#6c8ebf;" vertex="1" parent="1">
          <mxGeometry x="620" y="330" width="110" height="70" as="geometry" />
        </mxCell>
        <mxCell id="dYpmPyXzq7dEajP4tjT5-5" value="Public Key B" style="shape=cylinder3;whiteSpace=wrap;html=1;boundedLbl=1;backgroundOutline=1;size=15;fillColor=#dae8fc;strokeColor=#6c8ebf;" vertex="1" parent="1">
          <mxGeometry x="620" y="290" width="110" height="70" as="geometry" />
        </mxCell>
        <mxCell id="mhwUHoLbakyhLdP8B7vC-3" value="Authorized&lt;br style=&quot;font-size: 14px;&quot;&gt;Keys" style="shape=cylinder3;whiteSpace=wrap;html=1;boundedLbl=1;backgroundOutline=1;size=15;fillColor=#0050ef;fontColor=#ffffff;strokeColor=#001DBC;fontStyle=1;fontSize=14;" parent="1" vertex="1">
          <mxGeometry x="620" y="240" width="110" height="80" as="geometry" />
        </mxCell>
      </root>
    </mxGraphModel>
  </diagram>
</mxfile>
